<svg xmlns="http://www.w3.org/2000/svg" xmlns:xlink="http://www.w3.org/1999/xlink" width="20" height="22.11" viewBox="0 0 20 22.11"><defs><style>.a,.c{fill:none;}.b{clip-path:url(#a);}.c{stroke:#172b4d;stroke-linecap:round;stroke-linejoin:round;stroke-width:2px;}</style><clipPath id="a"><rect class="a" width="20" height="22.11"/></clipPath></defs><g class="b"><line class="c" x1="9" y1="5.19" transform="translate(5.5 3.24)"/><path class="c" d="M21,16V8a2,2,0,0,0-1-1.73l-7-4a2,2,0,0,0-2,0l-7,4A2,2,0,0,0,3,8v8a2,2,0,0,0,1,1.73l7,4a2,2,0,0,0,2,0l7-4A2,2,0,0,0,21,16Z" transform="translate(-2 -0.97)"/><path class="c" d="M3.27,6.96,12,12.01l8.73-5.05" transform="translate(-2 -0.97)"/><line class="c" y1="10.08" transform="translate(10 11.03)"/></g></svg>